<?xml version="1.0" standalone="no"?>
<!DOCTYPE svg PUBLIC "-//W3C//DTD SVG 20010904//EN"
 "http://www.w3.org/TR/2001/REC-SVG-20010904/DTD/svg10.dtd">
<svg version="1.0" xmlns="http://www.w3.org/2000/svg"
 width="24.000000pt" height="24.000000pt" viewBox="0 0 24.000000 24.000000"
 preserveAspectRatio="xMidYMid meet">

<g transform="translate(0.000000,24.000000) scale(0.100000,-0.100000)"
fill="#000000" stroke="none">
<path d="M66 195 l-46 -36 0 -65 c0 -59 2 -65 24 -76 33 -15 56 -4 56 27 0 18
5 25 20 25 15 0 20 -7 20 -25 0 -31 23 -42 56 -27 22 11 24 17 24 76 l0 65
-46 36 c-26 19 -50 35 -54 35 -4 0 -28 -16 -54 -35z m106 -16 c38 -31 39 -33
36 -88 -3 -49 -6 -56 -25 -59 -16 -2 -22 3 -25 20 -2 18 -10 24 -35 26 -28 3
-33 -1 -39 -23 -5 -19 -12 -25 -28 -23 -18 3 -21 11 -24 58 -3 53 -2 56 35 87
21 18 44 33 52 33 7 0 31 -14 53 -31z"/>
</g>
</svg>
